#!OML:ASF F:\VICON\USERDATA\INSTALL\rory3\rory3.ASF
:FULLY-SPECIFIED
:DEGREES
1103
root 2.15496 13.8684 -15.168 -371.149 -41.7683 369.777
lowerback 21.0702 2.62226 -11.3603
upperback 0.986928 0.586074 -0.674246
thorax -10.8941 0.802008 5.55851
lowerneck -6.49805 -16.1544 -11.4746
upperneck 15.7353 -22.9717 11.3175
head 8.60502 -10.8662 2.87255
rclavicle 1.1906e-013 2.11706e-014
rhumerus 111.321 86.4759 38.8779
rradius 37.6874
rwrist -77.4968
rhand -5.87371 3.54717
rfingers 7.12502
rthumb 19.9538 -25.4484
lclavicle 1.1906e-013 2.11706e-014
lhumerus 8.49474 -71.6067 81.7256
lradius 88.1742
lwrist -18.1531
lhand -19.7408 20.3407
lfingers 7.12502
lthumb 6.59007 50.2182
rfemur -42.816 -30.6774 2.77836
rtibia 76.4279
rfoot -20.1248 9.98558
rtoes 12.248
lfemur -19.586 25.5763 -3.42057
ltibia 63.0964
lfoot -21.1098 5.97025
ltoes -28.4213
1104
root 2.11825 13.8828 -15.1928 -371.194 -41.5174 370.098
lowerback 20.9021 2.52794 -11.5381
upperback 1.08999 0.437477 -0.770704
thorax -10.6566 0.720506 5.59713
lowerneck -6.48247 -16.1476 -11.5806
upperneck 15.447 -22.9511 11.5361
head 8.54408 -10.8539 2.96393
rclavicle -1.33819e-013 2.56432e-014
rhumerus 116.996 85.5375 44.8093
rradius 37.9141
rwrist -78.3352
rhand -6.00938 4.44899
rfingers 7.12502
rthumb 19.8233 -24.5601
lclavicle -1.33819e-013 2.56432e-014
lhumerus 8.72755 -68.9493 82.5883
lradius 87.1637
lwrist -12.5587
lhand -15.9796 10.4688
lfingers 7.12502
lthumb 10.2199 40.2006
rfemur -42.8109 -30.9729 2.59429
rtibia 76.4462
rfoot -19.7526 11.0478
rtoes 16.7977
lfemur -19.6264 25.0367 -3.83068
ltibia 62.7031
lfoot -20.9738 6.25772
ltoes -28.455
1105
root 2.07151 13.9057 -15.2322 -371.37 -41.5714 370.061
lowerback 21.3397 2.67645 -11.681
upperback 1.06583 0.533863 -0.755301
thorax -10.9476 0.789117 5.66479
lowerneck -6.53417 -16.1689 -11.4056
upperneck 15.5501 -23.0113 11.5161
head 8.57144 -10.8699 2.91988
rclavicle 2.36678e-014 -9.93923e-017
rhumerus 113.04 85.6534 40.8729
rradius 37.8757
rwrist -78.1466
rhand -5.97402 4.34089
rfingers 7.12502
rthumb 19.8573 -24.6647
lclavicle 2.36678e-014 -9.93923e-017
lhumerus 10.2206 -70.0365 81.0256
lradius 87.5573
lwrist -13.5838
lhand -16.1821 11.5389
lfingers 7.12502
lthumb 10.0245 41.2802
rfemur -42.3775 -30.5996 2.80642
rtibia 76.2773
rfoot -19.8768 11.0088
rtoes 18.027
lfemur -18.9222 24.873 -3.50389
ltibia 61.9822
lfoot -20.5942 6.46389
ltoes -28.7657
1106
root 2.03765 13.9088 -15.2676 -371.297 -41.4093 369.9
lowerback 21.5427 2.58521 -11.5599
upperback 1.14403 0.417481 -0.765667
thorax -10.9467 0.724423 5.62093
lowerneck -6.61243 -16.1835 -11.5126
upperneck 15.5417 -23.0864 11.8544
head 8.64931 -10.8814 3.01596
rclavicle -3.67503e-014 -1.91827e-014
rhumerus 108.068 85.4659 35.8038
rradius 37.8686
rwrist -77.9894
rhand -5.78585 2.46274
rfingers 7.12502
rthumb 20.0382 -26.524
lclavicle -3.67503e-014 -1.91827e-014
lhumerus 12.4024 -73.2407 78.4945
lradius 87.3645
lwrist -20.8821
lhand -22.8363 27.1548
lfingers 7.12502
lthumb 3.60116 57.1042
rfemur -42.2567 -30.4506 3.13383
rtibia 76.2703
rfoot -20.1145 10.9169
rtoes 18.4693
lfemur -18.8173 24.5024 -3.28138
ltibia 61.6118
lfoot -20.2432 6.61431
ltoes -28.711
1107
root 2.00837 13.9069 -15.2946 -371.515 -41.0305 370.242
lowerback 21.6135 2.46307 -11.5864
upperback 1.20021 0.217738 -0.974325
thorax -10.884 0.618957 5.46191
lowerneck -6.51806 -16.149 -11.1517
upperneck 15.2174 -23.03 11.8139
head 8.46767 -10.8563 2.98712
rclavicle -2.2003e-014 -9.64106e-015
rhumerus 110.858 85.0487 38.6563
rradius 37.982
rwrist -78.6916
rhand -5.83508 4.07754
rfingers 7.12502
rthumb 19.9909 -24.9141
lclavicle -2.2003e-014 -9.64106e-015
lhumerus 13.4761 -71.8972 77.7984
lradius 86.7721
lwrist -18.5721
lhand -21.231 18.1214
lfingers 7.12502
lthumb 5.15129 48.0387
rfemur -42.1798 -30.7663 2.84782
rtibia 76.4857
rfoot -20.37 10.8709
rtoes 18.3314
lfemur -18.8664 24.0776 -3.586
ltibia 61.369
lfoot -20.0496 6.67134
ltoes -29.3199
1108
root 1.96718 13.9055 -15.3399 -371.643 -40.8001 370.575
lowerback 21.5719 2.38125 -12.0178
upperback 1.22982 0.00656643 -1.01564
thorax -10.7903 0.533382 5.72507
lowerneck -6.84487 -16.2101 -11.4426
upperneck 15.6208 -23.1069 11.7931
head 8.70266 -10.8778 2.96333
rclavicle -3.62906e-014 -4.77083e-015
rhumerus 108.295 84.8012 35.8754
rradius 37.9507
rwrist -78.4721
rhand -5.823 3.54203
rfingers 7.12502
rthumb 20.0025 -25.4484
lclavicle -3.62906e-014 -4.77083e-015
lhumerus 13.1534 -70.0059 78.7791
lradius 86.0168
lwrist -16.6289
lhand -19.1232 10.617
lfingers 7.12502
lthumb 7.18621 40.4749
rfemur -42.3801 -30.9196 2.89214
rtibia 76.7722
rfoot -20.8762 10.4602
rtoes 16.9507
lfemur -18.8653 23.8148 -3.76378
ltibia 60.9982
lfoot -19.6454 7.06858
ltoes -30.3455
1109
root 1.9339 13.8955 -15.3583 -371.413 -40.8879 370.433
lowerback 21.2483 2.31583 -11.5723
upperback 1.32402 0.0620167 -1.19631
thorax -10.5115 0.512256 5.25165
lowerneck -6.69052 -16.1493 -11.5822
upperneck 15.4346 -23.1518 12.4991
head 8.72997 -10.8681 3.2055
rclavicle 8.1188e-014 -2.06488e-014
rhumerus 95.6601 85.0874 22.9783
rradius 37.7716
rwrist -77.9043
rhand -5.13371 4.85689
rfingers 7.12502
rthumb 20.6649 -24.063
lclavicle 8.1188e-014 -2.06488e-014
lhumerus 15.3264 -71.0633 76.6085
lradius 85.8545
lwrist -17.5318
lhand -22.6849 17.5952
lfingers 7.12502
lthumb 3.74743 47.542
rfemur -42.7206 -30.719 3.32441
rtibia 77.0039
rfoot -21.1443 10.2768
rtoes 17.311
lfemur -19.0313 23.8347 -3.5134
ltibia 61.0041
lfoot -19.4439 7.22503
ltoes -31.1626
1110
root 1.89698 13.8948 -15.3634 -371.757 -40.832 370.722
lowerback 20.9981 2.27162 -11.3566
upperback 1.54601 0.0679295 -1.51213
thorax -10.1204 0.464142 4.77524
lowerneck -6.6443 -16.0156 -10.9632
upperneck 14.9467 -22.9679 12.5182
head 8.46216 -10.7714 3.1844
rclavicle -6.02752e-014 2.30342e-014
rhumerus 106.783 84.1557 34.0951
rradius 38.1237
rwrist -79.6284
rhand -5.96942 5.36529
rfingers 7.12502
rthumb 19.8618 -23.6398
lclavicle -6.02752e-014 2.30342e-014
lhumerus 16.8389 -71.1215 75.2948
lradius 85.5256
lwrist -16.891
lhand -21.6986 14.0409
lfingers 7.12502
lthumb 4.69976 43.9688
rfemur -42.4564 -30.691 3.04426
rtibia 77.111
rfoot -21.4569 9.90287
rtoes 15.6531
lfemur -18.6479 23.4597 -3.6822
ltibia 60.7764
lfoot -19.436 7.71813
ltoes -31.6712
1111
root 1.85948 13.9037 -15.3935 -371.523 -40.9272 370.407
lowerback 20.6373 2.02825 -10.9597
upperback 1.67678 -0.0956264 -1.49959
thorax -9.74484 0.346432 4.61483
lowerneck -6.80383 -15.9834 -11.3439
upperneck 15.213 -22.9479 12.712
head 8.6489 -10.7486 3.27279
rclavicle -4.10615e-015 5.04416e-015
rhumerus 105.143 83.7894 32.0718
rradius 37.8915
rwrist -78.9613
rhand -5.72819 3.88653
rfingers 7.12502
rthumb 20.0936 -25.0944
lclavicle -4.10615e-015 5.04416e-015
lhumerus 17.009 -70.6169 75.4496
lradius 84.9554
lwrist -17.2494
lhand -22.8721 16.1037
lfingers 7.12502
lthumb 3.56664 46.0536
rfemur -42.4223 -30.4536 3.63627
rtibia 77.0034
rfoot -21.5705 9.82874
rtoes 16.7728
lfemur -18.3835 23.1269 -3.12615
ltibia 60.2587
lfoot -19.3988 6.95053
ltoes -28.5341
1112
root 1.81417 13.9353 -15.4081 -371.82 -41.0931 370.729
lowerback 20.2839 2.13738 -11.2342
upperback 1.83846 0.0466191 -1.47477
thorax -9.39126 0.400219 4.7582
lowerneck -6.50114 -15.9353 -11.0729
upperneck 14.5181 -22.7922 12.5733
head 8.29225 -10.711 3.26639
rclavicle -1.00374e-013 2.72273e-014
rhumerus 106.281 83.476 33.4192
rradius 38.1133
rwrist -79.7352
rhand -6.00363 3.13717
rfingers 7.12502
rthumb 19.8289 -25.8713
lclavicle -1.00374e-013 2.72273e-014
lhumerus 18.1203 -70.5489 74.758
lradius 85.0125
lwrist -17.0777
lhand -21.5248 14.7343
lfingers 7.12502
lthumb 4.86759 44.6584
rfemur -42.1322 -30.0955 3.53908
rtibia 76.8019
rfoot -21.6161 9.95184
rtoes 18.406
lfemur -17.6035 22.7332 -3.28956
ltibia 59.4288
lfoot -19.1975 7.43373
ltoes -28.8477
1113
root 1.78298 13.9315 -15.4369 -371.53 -40.9488 370.744
lowerback 20.4181 2.13733 -11.1537
upperback 1.68962 0.0207869 -1.61726
thorax -9.62941 0.399543 4.55958
lowerneck -7.2905 -15.942 -10.6215
upperneck 15.3688 -22.863 12.2686
head 8.63081 -10.6763 3.02003
rclavicle -3.44767e-015 -2.99171e-014
rhumerus 93.2482 84.0431 20.0812
rradius 37.8334
rwrist -78.7769
rhand -5.26499 4.59749
rfingers 7.12502
rthumb 20.5388 -24.336
lclavicle -3.44767e-015 -2.99171e-014
lhumerus 18.7792 -71.0487 74.4388
lradius 84.6497
lwrist -17.0815
lhand -21.9299 14.3376
lfingers 7.12502
lthumb 4.47647 44.2703
rfemur -42.5841 -30.0104 3.92646
rtibia 77.0139
rfoot -21.9785 9.20877
rtoes 17.1291
lfemur -17.9852 22.4884 -3.34865
ltibia 59.1898
lfoot -18.8945 7.55912
ltoes -29.0884
1114
root 1.74102 13.9408 -15.4586 -371.657 -41.0252 370.744
lowerback 20.624 2.20747 -11.3788
upperback 1.69846 0.0461723 -1.48237
thorax -9.73724 0.429344 4.82962
lowerneck -7.28969 -15.9232 -10.6498
upperneck 15.1675 -22.7822 12.1987
head 8.54705 -10.6513 3.02089
rclavicle -2.00741e-014 -8.22472e-015
rhumerus 84.718 84.166 11.5562
rradius 37.7378
rwrist -77.8516
rhand -5.15355 4.27933
rfingers 7.12502
rthumb 20.6459 -24.6426
lclavicle -2.00741e-014 -8.22472e-015
lhumerus 19.822 -70.9958 73.4031
lradius 84.7274
lwrist -16.6323
lhand -21.9209 14.83
lfingers 7.12502
lthumb 4.4851 44.7625
rfemur -42.3152 -29.8015 4.05112
rtibia 77.0156
rfoot -22.0803 9.45832
rtoes 18.1255
lfemur -17.5162 22.3876 -3.12699
ltibia 58.8018
lfoot -18.6295 8.01384
ltoes -30.4303
1115
root 1.70825 13.9336 -15.4721 -371.576 -41.1302 370.615
lowerback 20.8219 2.23012 -11.3627
upperback 1.52093 0.0684659 -1.24094
thorax -10.0512 0.471063 5.08269
lowerneck -7.55487 -15.6857 -9.38563
upperneck 15.3275 -22.2936 10.7314
head 8.25366 -10.4539 2.47916
rclavicle -9.04594e-014 6.80837e-015
rhumerus 99.1065 83.7851 26.4647
rradius 38.1377
rwrist -79.5864
rhand -5.18451 2.9989
rfingers 7.12502
rthumb 20.6161 -25.9263
lclavicle -9.04594e-014 6.80837e-015
lhumerus 18.775 -71.2634 75.0435
lradius 84.5267
lwrist -15.8649
lhand -22.7746 16.7534
lfingers 7.12502
lthumb 3.66078 46.7017
rfemur -42.4144 -29.5956 4.38366
rtibia 77.0954
rfoot -22.1531 9.317
rtoes 19.0358
lfemur -17.4509 22.1552 -2.89109
ltibia 58.7175
lfoot -18.6978 7.78556
ltoes -28.8775
1116
root 1.66975 13.9471 -15.4775 -371.746 -41.2018 370.902
lowerback 20.7337 2.17128 -11.6985
upperback 1.44827 -0.0651693 -1.11952
thorax -10.0622 0.430823 5.44749
lowerneck -7.25898 -15.6886 -10.7472
upperneck 15.3407 -22.3093 11.4885
head 8.46279 -10.482 2.89395
rclavicle -3.18428e-014 5.58585e-014
rhumerus 112.11 82.8346 39.7462
rradius 38.347
rwrist -80.8935
rhand -5.89867 4.25
rfingers 7.12502
rthumb 19.9298 -24.7481
lclavicle -3.18428e-014 5.58585e-014
lhumerus 16.9036 -70.5581 77.1005
lradius 84.1821
lwrist -17.3255
lhand -21.912 15.1013
lfingers 7.12502
lthumb 4.49371 45.0336
rfemur -42.362 -29.6556 4.29492
rtibia 77.0755
rfoot -22.3694 9.20888
rtoes 17.7996
lfemur -17.162 21.8794 -3.08863
ltibia 58.2971
lfoot -18.5633 8.29733
ltoes -29.7257
